#!OML:ASF E:/inclinewalkrobotboard/Project1/Captureday1/Session1/subject1.ASF
:FULLY-SPECIFIED
:DEGREES
138
root 0 0 0 1.7309156249058544 -10.822403549590474 0.8121929450167301
lowerback -0.0836689142959488 -1.5643446990829233 -2.591603669441527
upperback -0.7021758714994448 -2.050909195373754 1.7907251049402886
thorax -0.4865333255548805 -1.0004234999368606 3.2528529338528283
lowerneck -24.53281472425278 -1.6316651183853945 -7.62299230996379
upperneck 28.616105044729366 0.35957861698168625 1.8182107068572235
head 13.762572074743035 -0.6172041369006801 2.1924204920379697
rclavicle -1.1345445544553149E-14 9.902361335476538E-16
rhumerus -31.13595314895099 -0.21547744046643658 -81.56486101053522
rradius 31.42021559084072
rwrist 18.44879960698006
rhand -18.488051067455306 9.200034740020635
rfingers 7.125019999999936
rthumb 7.797716893014424 -20.669257227905433
lclavicle -3.3761072898167583E-15 5.179641434438054E-16
lhumerus -19.290989068830495 -0.9864995543357944 90.46158757299956
lradius 63.89591590821122
lwrist 1.2471405624881462
lhand -28.852040473055723 20.480695510102983
lfingers 7.125020000000027
lthumb -2.195921667119044 50.43467219031453
rfemur 1.6571822416356454 3.4385176934138775 25.593820747263827
rtibia 56.3670044406729
rfoot 4.850944715026582 1.041943556479875
rtoes 2.4048161865575586
lfemur -25.26226436681752 -3.996745769665807 -14.686882256712018
ltibia 28.800323602712858
lfoot -1.506502154132101 -2.139940327661823
ltoes 3.7523105059819244
139
root 0 0 0 1.7681422878554063 -10.90457719175704 0.849567704366975
lowerback -0.18387137145913135 -1.6117338590411903 -2.637100742664696
upperback -0.6705350962931296 -2.1142779652043435 1.7257227384977605
thorax -0.39547096104477386 -1.0331841939496345 3.209731899905316
lowerneck -24.640686260017944 -1.642098787989196 -7.710104913605799
upperneck 28.66517875190267 0.35532153420088153 1.8534840186287713
head 13.791937747515997 -0.6101159072324337 2.2109347946358087
rclavicle -8.719385450060076E-15 9.638226028579558E-16
rhumerus -31.758953938411818 -2.2875913710130735 -81.22264255418783
rradius 30.980794473716045
rwrist 19.042561146148188
rhand -18.017001839803235 9.032936854276109
rfingers 7.1250199999999335
rthumb 8.250974265718641 -20.807733438312255
lclavicle -2.814596156819958E-15 6.717604118741666E-16
lhumerus -19.16367225381918 -1.2612127026149058 90.39448412179647
lradius 64.01687893935423
lwrist 1.3284191178495433
lhand -28.832953006358146 20.514744198236592
lfingers 7.125020000000025
lthumb -2.1804540412831503 50.4744702558824
rfemur -9.483820012279558 1.7232804767131356 22.896242351759724
rtibia 67.53935409122002
rfoot 6.451517816535521 -2.972314441657788
rtoes 11.402253446792585
lfemur -17.845492886939535 -2.949165166813554 -21.018229778426548
ltibia 32.29188039785423
lfoot -3.709379192183759 -4.095611955590715
ltoes 9.408489549832401
140
root 0 0 0 1.8033042411117395 -10.88798515513799 0.8593320000530658
lowerback -0.19336813322864854 -1.6254541931649904 -2.6676513743339094
upperback -0.6263076688706259 -2.1335146504685243 1.7086198800512586
thorax -0.345090463230999 -1.0443225602877797 3.2100254907777637
lowerneck -24.595786764043858 -1.63658994201498 -7.772577000405131
upperneck 28.53957449964033 0.33917644284357595 1.9400011109730382
head 13.720454733752518 -0.5972036471920324 2.2417156023653133
rclavicle -5.55609468951045E-15 1.2696847206909957E-15
rhumerus -32.30611429538042 -4.021431492655301 -80.93285698499369
rradius 30.5940527622151
rwrist 19.555586073775903
rhand -17.63331625875998 8.910061329183467
rfingers 7.125019999999932
rthumb 8.621424914113067 -20.91730219357966
lclavicle -2.0930772481046786E-15 1.1197823476213822E-15
lhumerus -19.338584208533632 -2.115252904144457 90.35091726166378
lradius 64.38353888606962
lwrist 1.6660805902207945
lhand -28.678986136534142 20.783692749205507
lfingers 7.125020000000025
lthumb -2.03598069007404 50.76265092334362
rfemur -14.733280348275157 0.2448527528946567 21.30562354452186
rtibia 72.86230998853897
rfoot 0.9291358868103021 -5.662406423503324
rtoes 9.02843114101173
lfemur -12.247762683500035 -3.1845105705749575 -24.337243324324145
ltibia 28.493103784080603
lfoot -9.2688245705225 -1.9810808845333385
ltoes 10.004871096278416
141
root 0 0 0 1.833895905497358 -10.856167183881572 0.8712142444202112
lowerback -0.19757688562990983 -1.634011374923318 -2.702212550410133
upperback -0.593403583737584 -2.145748249821964 1.7095663916022057
thorax -0.3092475235041532 -1.0517881924243366 3.2308095726504718
lowerneck -24.592389587065558 -1.6410786280411092 -7.833231734992136
upperneck 28.23976584460877 0.3065611240506517 2.0589526576437374
head 13.59715336591354 -0.5845408309216773 2.279675693950554
rclavicle -5.1612090107294615E-15 1.0978419070440145E-15
rhumerus -32.71853511426621 -4.901812099510786 -80.60252385055317
rradius 30.27438435041547
rwrist 19.90216547190061
rhand -17.429274926044123 8.823743668075208
rfingers 7.125019999999933
rthumb 8.818151895387274 -20.99521053431365
lclavicle -1.6479124738741093E-15 1.0015502331702204E-15
lhumerus -19.596647279953046 -3.015282906395955 90.5433323472794
lradius 64.64177135662771
lwrist 1.8595586779623754
lhand -28.69050284805831 20.942271743546478
lfingers 7.125020000000025
lthumb -2.0506754578922166 50.93026021231465
rfemur -22.91051058992067 -0.8457986186914201 20.62964931184809
rtibia 71.19514467870079
rfoot -3.7311398832958282 -6.77649236053281
rtoes 6.044373119849694
lfemur -6.467022600516799 -3.48804332351257 -27.11496412084941
ltibia 24.075045323804687
lfoot -14.325981409622447 0.003419874198094419
ltoes 9.162684484871951
142
root 0 0 0 1.8725298141752733 -10.858169525175715 0.897492435612584
lowerback -0.24130525306794803 -1.6593022307056287 -2.7415419223948128
upperback -0.5603119819347939 -2.179418688368291 1.7109556399601176
thorax -0.2507095285818519 -1.0709864565617082 3.253849291502717
lowerneck -24.728635156277768 -1.6666112079714326 -7.9086666787966085
upperneck 27.874226734204775 0.2570997371318843 2.1880664921713726
head 13.47830015267148 -0.5756248364435652 2.320474006419666
rclavicle -5.1604124673321625E-15 9.58612148565387E-16
rhumerus -33.020468887436365 -5.097697870255722 -80.23451012810352
rradius 29.995035599806922
rwrist 20.09742307059878
rhand -17.377065054543806 8.788761070896841
rfingers 7.125019999999934
rthumb 8.868626268654399 -21.02294873858344
lclavicle -1.94360461334942E-15 5.970932827002104E-16
lhumerus -20.144368105722986 -4.108755482144186 90.96109954061671
lradius 64.82608554407894
lwrist 1.978562937028372
lhand -28.770960625481813 20.958084564632664
lfingers 7.125020000000024
lthumb -2.1332057069427925 50.95093754181841
rfemur -27.128596716671005 -0.877297036018124 20.122197544263077
rtibia 66.43941357957817
rfoot -5.22035290686434 -7.3313583254139925
rtoes 3.872956923589957
lfemur -1.1421963135279247 -3.490243567337054 -28.98594986864086
ltibia 21.909969910056272
lfoot -17.66872272448013 0.2257190215094722
ltoes 6.532872992437072
143
root 0 0 0 1.9182108372124829 -10.898871013145046 0.9310779981130982
lowerback -0.3135841990751329 -1.700107607750156 -2.773804576506483
upperback -0.5213785065501227 -2.2335840083604817 1.7055613494938662
thorax -0.16839244215943128 -1.10076892630494 3.2651125225443054
lowerneck -24.948417600847655 -1.6988966703002428 -7.982553900216796
upperneck 27.613927848531706 0.21412877643565575 2.277953674149567
head 13.416409010543187 -0.5707770979473732 2.35038212170995
rclavicle -4.017017183948676E-15 8.633999248746856E-16
rhumerus -33.29841376037541 -5.078647265101523 -79.83430476924602
rradius 29.701372981489694
rwrist 20.26632629089151
rhand -17.366805783524704 8.767802154867908
rfingers 7.125019999999937
rthumb 8.878576322630709 -21.034467333652838
lclavicle -2.0592023232736075E-15 5.333444538331633E-16
lhumerus -20.571839911170592 -5.362782186035126 91.2386586305005
lradius 65.18191576531314
lwrist 2.1997810291641797
lhand -28.78299344372541 21.073769145338147
lfingers 7.125020000000023
lthumb -2.150740789031299 51.07751404064035
rfemur -29.591491376233044 -0.12050878628451223 18.80143913439264
rtibia 58.59825601146764
rfoot -5.499653661632593 -8.37679377646576
rtoes 1.4400486819361915
lfemur 2.7716294572623728 -3.2748419150248944 -30.124767048348577
ltibia 21.05690068174028
lfoot -19.563481852932156 -0.219431652090619
ltoes 3.890757968423724
144
root 0 0 0 1.9871895808134896 -10.973512567622386 0.9817087912085275
lowerback -0.41311361055994067 -1.7644610246070642 -2.80836557353058
upperback -0.4634826577322296 -2.318656828750514 1.7001380926105893
thorax -0.047681708983082105 -1.1473612023850723 3.276791076529299
lowerneck -25.334938657752787 -1.7441762143009014 -8.062492916414223
upperneck 27.27760022615142 0.16687956072461074 2.3627812618290776
head 13.359406670192186 -0.5639240867208477 2.378224042404095
rclavicle -4.909126664480954E-16 1.9742210572632462E-16
rhumerus -33.66552875285876 -4.664055386479214 -79.12205204192637
rradius 29.19282251919297
rwrist 20.41834900240827
rhand -17.4259611734342 8.814973537355748
rfingers 7.125019999999938
rthumb 8.820906411002715 -20.97119902711495
lclavicle 6.914078687872582E-17 5.593065967868908E-16
lhumerus -20.813356325283088 -7.177122719364011 91.3465342931136
lradius 65.94294993766859
lwrist 2.6912905726258756
lhand -28.712869357536558 21.6086570248356
lfingers 7.125020000000023
lthumb -2.0896002739991886 51.63677595648708
rfemur -32.58068977350097 2.2035134158567304 16.935590288135085
rtibia 40.96776834734713
rfoot -5.710298982601808 -11.045088171018685
rtoes -2.307670538216419
lfemur 8.68887484559287 -2.994628541171574 -31.205395032276826
ltibia 19.64510470237616
lfoot -20.615628898519393 -1.5220559132453877
ltoes -0.6268919297115367
145
root 0 0 0 2.0186790429071966 -10.993977473286062 1.0161899625763708
lowerback -0.4346228041345137 -1.7921405496862375 -2.8192354604083496
upperback -0.4391129506244371 -2.3559319481930414 1.724573065314185
thorax -0.005978722799941938 -1.1679378094929591 3.3073583863440685
lowerneck -25.68521559602107 -1.7814699164973757 -8.06744626622317
upperneck 26.819180841175168 0.12902644711141598 2.421773780319872
head 13.25771648320195 -0.558373823868627 2.3889702909979342
rclavicle 2.331007345713056E-15 -7.846412293246657E-16
rhumerus -33.84791657940183 -4.049102621735714 -78.59857856527611
rradius 28.83843029064289
rwrist 20.42361980947332
rhand -17.538218195377254 8.905657303871164
rfingers 7.125019999999936
rthumb 8.712123685297943 -20.875545615802775
lclavicle 1.8605629897718688E-15 4.23407217253472E-16
lhumerus -20.755256099267825 -8.316539532636597 91.28963302590954
lradius 66.51536390273485
lwrist 3.057041913247096
lhand -28.66970211848013 22.146656091985694
lfingers 7.125020000000022
lthumb -2.0519754241755512 52.19064452250114
rfemur -32.94580659905128 3.9399043766241073 17.339981600119817
rtibia 29.626229617504134
rfoot -6.606208394870057 -12.793373611781643
rtoes -3.65899181034447
lfemur 13.940281156758665 -3.122258149665329 -31.379713160200787
ltibia 19.66408606472983
lfoot -18.600722315566383 -3.410177858486496
ltoes -4.45913279531115
